<?xml version="1.0" standalone="no"?>
<!DOCTYPE svg PUBLIC "-//W3C//DTD SVG 20010904//EN"
 "http://www.w3.org/TR/2001/REC-SVG-20010904/DTD/svg10.dtd">
<svg version="1.0" xmlns="http://www.w3.org/2000/svg"
 width="512.000000pt" height="512.000000pt" viewBox="0 0 512.000000 512.000000"
 preserveAspectRatio="xMidYMid meet">
<metadata>
Created by potrace 1.14, written by Peter Selinger 2001-2017
</metadata>
<g transform="translate(0.000000,512.000000) scale(0.100000,-0.100000)"
fill="#000000" stroke="none">
<path d="M2378 5115 c-2 -2 -34 -6 -72 -9 -65 -5 -82 -8 -161 -21 -16 -3 -46
-8 -65 -11 -110 -17 -303 -74 -450 -131 -727 -284 -1296 -901 -1523 -1653 -14
-47 -28 -96 -31 -110 -5 -25 -9 -42 -20 -90 -13 -58 -35 -200 -43 -282 -10
-94 -10 -401 -1 -498 4 -41 16 -127 27 -190 113 -644 468 -1220 994 -1614 175
-130 311 -207 582 -326 153 -68 481 -149 675 -167 155 -15 565 -7 640 12 8 2
35 7 60 10 118 16 369 86 515 145 880 351 1500 1166 1602 2105 10 91 10 448 0
545 -40 408 -205 848 -445 1190 -271 386 -656 703 -1074 884 -21 9 -53 23 -70
31 -88 39 -375 123 -478 139 -19 3 -44 7 -55 10 -20 4 -106 16 -160 23 -38 4
-443 12 -447 8z m66 -657 l0 -418 117 0 117 0 0 403 c1 221 1 410 1 421 1 19
27 19 186 0 71 -8 68 -5 191 -184 114 -165 256 -422 318 -575 l24 -60 126 -3
c119 -2 126 -1 117 15 -5 10 -26 59 -46 108 -67 162 -181 382 -272 523 -29 45
-50 82 -46 82 12 0 141 -49 230 -88 219 -95 464 -258 642 -427 70 -66 231
-243 231 -254 0 -3 -819 -6 -1820 -6 -1001 0 -1820 2 -1820 4 0 18 234 263
315 331 216 179 461 323 689 406 l38 14 -15 -23 c-38 -53 -139 -231 -195 -343
-53 -106 -152 -327 -152 -339 0 -3 56 -5 125 -5 93 0 125 3 125 12 0 7 45 103
99 213 128 258 335 578 378 583 10 1 59 8 108 15 50 7 112 13 139 12 l50 0 0
-417z m-87 -2535 c1 -920 -2 -1675 -6 -1677 -5 -3 -71 4 -156 18 -16 2 -38 5
-47 5 -21 1 -156 186 -246 336 -85 143 -178 329 -241 482 l-50 123 352 2 352
3 0 112 0 111 -382 0 c-210 0 -386 3 -392 6 -8 5 -70 243 -86 331 -17 94 -45
278 -50 325 -3 30 -7 75 -10 100 -2 25 -7 89 -10 143 l-6 97 28 1 c15 0 226 1
468 2 l440 2 0 115 0 115 -468 0 -467 0 5 95 c8 144 31 365 49 456 3 12 7 38
10 57 3 20 15 78 27 129 11 51 23 104 25 118 l5 26 -111 -1 c-60 0 -114 -5
-119 -10 -5 -6 -12 -23 -15 -40 -2 -16 -16 -86 -29 -155 -14 -69 -28 -150 -32
-180 -3 -30 -10 -84 -15 -120 -9 -62 -21 -227 -24 -317 0 -23 -4 -45 -9 -49
-4 -4 -210 -8 -458 -8 l-451 -1 6 79 c4 44 8 89 11 100 2 12 6 39 9 61 12 100
65 310 107 425 35 95 91 224 105 241 13 14 110 16 948 15 l933 0 0 -1673z
m2320 1597 c106 -233 179 -509 199 -750 3 -41 8 -78 11 -82 2 -5 -4 -8 -14 -9
-71 -4 -946 -3 -953 1 -4 3 -10 61 -14 130 -4 69 -9 139 -11 155 -2 17 -6 55
-9 85 -4 30 -8 66 -10 80 -3 14 -10 61 -16 105 -12 83 -57 302 -64 313 -2 4
-51 6 -108 6 -129 -2 -130 -2 -124 -12 3 -5 7 -19 10 -33 3 -13 7 -34 10 -46
9 -37 20 -89 30 -143 3 -14 9 -50 15 -80 6 -30 13 -75 16 -100 10 -82 16 -135
20 -157 2 -12 7 -81 10 -155 4 -73 9 -136 11 -139 7 -13 -38 -14 -453 -13
l-423 0 -1 -43 c0 -24 0 -68 0 -98 0 -30 0 -63 0 -74 1 -18 17 -19 419 -19
229 0 427 -1 439 -1 17 -1 21 -6 18 -23 -2 -13 -6 -72 -10 -133 -6 -116 -10
-165 -20 -230 -3 -22 -8 -58 -10 -80 -3 -22 -10 -67 -16 -100 -6 -33 -13 -71
-16 -85 -3 -20 -31 -140 -57 -250 -21 -87 -27 -100 -49 -101 -12 0 -174 0
-359 0 l-338 0 -1 -75 c0 -41 -1 -91 -2 -111 l0 -38 322 -3 c302 -2 323 -3
317 -20 -113 -298 -255 -566 -434 -817 -35 -49 -71 -95 -80 -102 -12 -10 -99
-26 -152 -28 -13 0 -15 201 -15 1670 -1 919 0 1673 1 1676 2 3 425 5 940 5
l937 -1 34 -75z m-3529 -1084 c4 -4 8 -26 8 -49 6 -201 24 -353 80 -677 3 -14
18 -79 33 -145 16 -66 28 -121 26 -123 -3 -3 -650 -5 -747 -3 -25 1 -33 11
-79 109 -129 268 -202 534 -225 819 l-6 72 29 3 c57 6 874 1 881 -6z m3700 5
c24 -1 41 -4 38 -9 -2 -4 -7 -41 -11 -83 -3 -42 -8 -87 -10 -100 -3 -13 -7
-40 -9 -59 -7 -45 -15 -88 -22 -120 -3 -14 -8 -35 -10 -46 -30 -158 -202 -583
-237 -584 -99 -4 -810 0 -814 4 -3 3 3 43 15 88 43 170 85 400 98 548 3 30 7
66 9 79 2 13 7 81 11 150 3 69 8 128 9 131 2 4 720 4 933 1z m-3471 -1248 c75
-218 211 -506 331 -706 38 -64 68 -117 67 -117 -31 0 -332 147 -440 215 -233
146 -480 373 -639 588 l-28 37 351 0 c326 0 352 -1 358 -17z m3044 -25 c-138
-200 -416 -451 -661 -600 -137 -83 -374 -192 -465 -214 -29 -7 -29 -6 -14 12
33 38 144 233 215 374 75 151 123 262 171 392 l28 78 378 0 378 0 -30 -42z"/>
</g>
</svg>
